<svg width="34" height="34" viewBox="0 0 34 34" fill="none" xmlns="http://www.w3.org/2000/svg">
<path fill-rule="evenodd" clip-rule="evenodd" d="M20.0132 16.6503L32.6025 4.06074C33.5325 3.13074 33.5325 1.62751 32.6025 0.697504C31.6725 -0.232501 30.1693 -0.232501 29.2393 0.697504L16.65 13.2871L4.06067 0.697504C3.13068 -0.232501 1.62748 -0.232501 0.697491 0.697504C-0.232497 1.62751 -0.232497 3.13074 0.697491 4.06074L13.2868 16.6503L0.697491 29.2398C-0.232497 30.1699 -0.232497 31.6731 0.697491 32.6031C1.1613 33.0669 1.77019 33.3 2.37908 33.3C2.98797 33.3 3.59687 33.0669 4.06067 32.6031L16.65 20.0135L29.2393 32.6031C29.7031 33.0669 30.312 33.3 30.9209 33.3C31.5298 33.3 32.1387 33.0669 32.6025 32.6031C33.5325 31.6731 33.5325 30.1699 32.6025 29.2398L20.0132 16.6503Z" fill="white"/>
</svg>
