<svg width="34" height="34" viewBox="0 0 34 34" fill="none" xmlns="http://www.w3.org/2000/svg">
<path fill-rule="evenodd" clip-rule="evenodd" d="M15.3333 0.333313C23.6176 0.333313 30.3333 7.04904 30.3333 15.3333C30.3333 18.8746 29.1061 22.1293 27.0538 24.6953L33.1785 30.8215C33.8294 31.4723 33.8294 32.5276 33.1785 33.1785C32.5777 33.7793 31.6323 33.8255 30.9785 33.3171L30.8215 33.1785L24.6953 27.0538C22.1293 29.1061 18.8746 30.3333 15.3333 30.3333C7.04904 30.3333 0.333313 23.6176 0.333313 15.3333C0.333313 7.04904 7.04904 0.333313 15.3333 0.333313ZM15.3333 3.66665C8.88999 3.66665 3.66665 8.88999 3.66665 15.3333C3.66665 21.7766 8.88999 27 15.3333 27C21.7766 27 27 21.7766 27 15.3333C27 8.88999 21.7766 3.66665 15.3333 3.66665Z" fill="white"/>
<path d="M9.98047 6.9375H15.6289C16.9102 6.9375 17.9922 7.13281 18.875 7.52344C19.7656 7.91406 20.4414 8.49219 20.9023 9.25781C21.3711 10.0156 21.6055 10.9492 21.6055 12.0586C21.6055 12.8398 21.4453 13.5547 21.125 14.2031C20.8125 14.8438 20.3594 15.3906 19.7656 15.8438C19.1797 16.2891 18.4766 16.6211 17.6562 16.8398L17.0234 17.0859H11.7148L11.6914 15.2461H15.6992C16.5117 15.2461 17.1875 15.1055 17.7266 14.8242C18.2656 14.5352 18.6719 14.1484 18.9453 13.6641C19.2188 13.1797 19.3555 12.6445 19.3555 12.0586C19.3555 11.4023 19.2266 10.8281 18.9688 10.3359C18.7109 9.84375 18.3047 9.46484 17.75 9.19922C17.2031 8.92578 16.4961 8.78906 15.6289 8.78906H12.2422V24H9.98047V6.9375ZM19.9531 24L15.8047 16.2656L18.1602 16.2539L22.3672 23.8594V24H19.9531Z" fill="white"/>
</svg>
