<svg width="34" height="34" viewBox="0 0 34 34" fill="none" xmlns="http://www.w3.org/2000/svg">
<path fill-rule="evenodd" clip-rule="evenodd" d="M15 0C23.2843 0 30 6.71573 30 15C30 18.5413 28.7728 21.796 26.7205 24.362L32.8452 30.4882C33.4961 31.139 33.4961 32.1943 32.8452 32.8452C32.2444 33.446 31.299 33.4922 30.6452 32.9838L30.4882 32.8452L24.362 26.7205C21.796 28.7728 18.5413 30 15 30C6.71573 30 0 23.2843 0 15C0 6.71573 6.71573 0 15 0ZM15 3.33333C8.55668 3.33333 3.33333 8.55668 3.33333 15C3.33333 21.4433 8.55668 26.6667 15 26.6667C21.4433 26.6667 26.6667 21.4433 26.6667 15C26.6667 8.55668 21.4433 3.33333 15 3.33333Z" fill="white"/>
</svg>
