<svg width="159" height="40" viewBox="0 0 159 40" fill="none" xmlns="http://www.w3.org/2000/svg">
<path fill-rule="evenodd" clip-rule="evenodd" d="M18.3333 3.33331C26.6176 3.33331 33.3333 10.049 33.3333 18.3333C33.3333 21.8746 32.1061 25.1293 30.0538 27.6953L36.1785 33.8215C36.8294 34.4723 36.8294 35.5276 36.1785 36.1785C35.5777 36.7793 34.6323 36.8255 33.9785 36.3171L33.8215 36.1785L27.6953 30.0538C25.1293 32.1061 21.8746 33.3333 18.3333 33.3333C10.049 33.3333 3.33331 26.6176 3.33331 18.3333C3.33331 10.049 10.049 3.33331 18.3333 3.33331ZM18.3333 6.66665C11.89 6.66665 6.66665 11.89 6.66665 18.3333C6.66665 24.7766 11.89 30 18.3333 30C24.7766 30 30 24.7766 30 18.3333C30 11.89 24.7766 6.66665 18.3333 6.66665Z" fill="white"/>
<path d="M12.9805 9.9375H18.6289C19.9102 9.9375 20.9922 10.1328 21.875 10.5234C22.7656 10.9141 23.4414 11.4922 23.9023 12.2578C24.3711 13.0156 24.6055 13.9492 24.6055 15.0586C24.6055 15.8398 24.4453 16.5547 24.125 17.2031C23.8125 17.8438 23.3594 18.3906 22.7656 18.8438C22.1797 19.2891 21.4766 19.6211 20.6562 19.8398L20.0234 20.0859H14.7148L14.6914 18.2461H18.6992C19.5117 18.2461 20.1875 18.1055 20.7266 17.8242C21.2656 17.5352 21.6719 17.1484 21.9453 16.6641C22.2188 16.1797 22.3555 15.6445 22.3555 15.0586C22.3555 14.4023 22.2266 13.8281 21.9688 13.3359C21.7109 12.8438 21.3047 12.4648 20.75 12.1992C20.2031 11.9258 19.4961 11.7891 18.6289 11.7891H15.2422V27H12.9805V9.9375ZM22.9531 27L18.8047 19.2656L21.1602 19.2539L25.3672 26.8594V27H22.9531Z" fill="white"/>
<path d="M40.9141 27.2344C40.0312 27.2344 39.2305 27.0859 38.5117 26.7891C37.8008 26.4844 37.1875 26.0586 36.6719 25.5117C36.1641 24.9648 35.7734 24.3164 35.5 23.5664C35.2266 22.8164 35.0898 21.9961 35.0898 21.1055V20.6133C35.0898 19.582 35.2422 18.6641 35.5469 17.8594C35.8516 17.0469 36.2656 16.3594 36.7891 15.7969C37.3125 15.2344 37.9062 14.8086 38.5703 14.5195C39.2344 14.2305 39.9219 14.0859 40.6328 14.0859C41.5391 14.0859 42.3203 14.2422 42.9766 14.5547C43.6406 14.8672 44.1836 15.3047 44.6055 15.8672C45.0273 16.4219 45.3398 17.0781 45.543 17.8359C45.7461 18.5859 45.8477 19.4062 45.8477 20.2969V21.2695H36.3789V19.5H43.6797V19.3359C43.6484 18.7734 43.5312 18.2266 43.3281 17.6953C43.1328 17.1641 42.8203 16.7266 42.3906 16.3828C41.9609 16.0391 41.375 15.8672 40.6328 15.8672C40.1406 15.8672 39.6875 15.9727 39.2734 16.1836C38.8594 16.3867 38.5039 16.6914 38.207 17.0977C37.9102 17.5039 37.6797 18 37.5156 18.5859C37.3516 19.1719 37.2695 19.8477 37.2695 20.6133V21.1055C37.2695 21.707 37.3516 22.2734 37.5156 22.8047C37.6875 23.3281 37.9336 23.7891 38.2539 24.1875C38.582 24.5859 38.9766 24.8984 39.4375 25.125C39.9062 25.3516 40.4375 25.4648 41.0312 25.4648C41.7969 25.4648 42.4453 25.3086 42.9766 24.9961C43.5078 24.6836 43.9727 24.2656 44.3711 23.7422L45.6836 24.7852C45.4102 25.1992 45.0625 25.5938 44.6406 25.9688C44.2188 26.3438 43.6992 26.6484 43.082 26.8828C42.4727 27.1172 41.75 27.2344 40.9141 27.2344ZM53.4531 25.4531C53.9688 25.4531 54.4453 25.3477 54.8828 25.1367C55.3203 24.9258 55.6797 24.6367 55.9609 24.2695C56.2422 23.8945 56.4023 23.4688 56.4414 22.9922H58.5039C58.4648 23.7422 58.2109 24.4414 57.7422 25.0898C57.2812 25.7305 56.6758 26.25 55.9258 26.6484C55.1758 27.0391 54.3516 27.2344 53.4531 27.2344C52.5 27.2344 51.668 27.0664 50.957 26.7305C50.2539 26.3945 49.668 25.9336 49.1992 25.3477C48.7383 24.7617 48.3906 24.0898 48.1562 23.332C47.9297 22.5664 47.8164 21.7578 47.8164 20.9062V20.4141C47.8164 19.5625 47.9297 18.7578 48.1562 18C48.3906 17.2344 48.7383 16.5586 49.1992 15.9727C49.668 15.3867 50.2539 14.9258 50.957 14.5898C51.668 14.2539 52.5 14.0859 53.4531 14.0859C54.4453 14.0859 55.3125 14.2891 56.0547 14.6953C56.7969 15.0938 57.3789 15.6406 57.8008 16.3359C58.2305 17.0234 58.4648 17.8047 58.5039 18.6797H56.4414C56.4023 18.1562 56.2539 17.6836 55.9961 17.2617C55.7461 16.8398 55.4023 16.5039 54.9648 16.2539C54.5352 15.9961 54.0312 15.8672 53.4531 15.8672C52.7891 15.8672 52.2305 16 51.7773 16.2656C51.332 16.5234 50.9766 16.875 50.7109 17.3203C50.4531 17.7578 50.2656 18.2461 50.1484 18.7852C50.0391 19.3164 49.9844 19.8594 49.9844 20.4141V20.9062C49.9844 21.4609 50.0391 22.0078 50.1484 22.5469C50.2578 23.0859 50.4414 23.5742 50.6992 24.0117C50.9648 24.4492 51.3203 24.8008 51.7656 25.0664C52.2188 25.3242 52.7812 25.4531 53.4531 25.4531ZM63.2969 14.3203V27H61.1172V14.3203H63.2969ZM60.9531 10.957C60.9531 10.6055 61.0586 10.3086 61.2695 10.0664C61.4883 9.82422 61.8086 9.70312 62.2305 9.70312C62.6445 9.70312 62.9609 9.82422 63.1797 10.0664C63.4062 10.3086 63.5195 10.6055 63.5195 10.957C63.5195 11.293 63.4062 11.582 63.1797 11.8242C62.9609 12.0586 62.6445 12.1758 62.2305 12.1758C61.8086 12.1758 61.4883 12.0586 61.2695 11.8242C61.0586 11.582 60.9531 11.293 60.9531 10.957ZM68.9453 16.7578V31.875H66.7656V14.3203H68.7578L68.9453 16.7578ZM77.4883 20.5547V20.8008C77.4883 21.7227 77.3789 22.5781 77.1602 23.3672C76.9414 24.1484 76.6211 24.8281 76.1992 25.4062C75.7852 25.9844 75.2734 26.4336 74.6641 26.7539C74.0547 27.0742 73.3555 27.2344 72.5664 27.2344C71.7617 27.2344 71.0508 27.1016 70.4336 26.8359C69.8164 26.5703 69.293 26.1836 68.8633 25.6758C68.4336 25.168 68.0898 24.5586 67.832 23.8477C67.582 23.1367 67.4102 22.3359 67.3164 21.4453V20.1328C67.4102 19.1953 67.5859 18.3555 67.8438 17.6133C68.1016 16.8711 68.4414 16.2383 68.8633 15.7148C69.293 15.1836 69.8125 14.7812 70.4219 14.5078C71.0312 14.2266 71.7344 14.0859 72.5312 14.0859C73.3281 14.0859 74.0352 14.2422 74.6523 14.5547C75.2695 14.8594 75.7891 15.2969 76.2109 15.8672C76.6328 16.4375 76.9492 17.1211 77.1602 17.918C77.3789 18.707 77.4883 19.5859 77.4883 20.5547ZM75.3086 20.8008V20.5547C75.3086 19.9219 75.2422 19.3281 75.1094 18.7734C74.9766 18.2109 74.7695 17.7188 74.4883 17.2969C74.2148 16.8672 73.8633 16.5312 73.4336 16.2891C73.0039 16.0391 72.4922 15.9141 71.8984 15.9141C71.3516 15.9141 70.875 16.0078 70.4688 16.1953C70.0703 16.3828 69.7305 16.6367 69.4492 16.957C69.168 17.2695 68.9375 17.6289 68.7578 18.0352C68.5859 18.4336 68.457 18.8477 68.3711 19.2773V22.3125C68.5273 22.8594 68.7461 23.375 69.0273 23.8594C69.3086 24.3359 69.6836 24.7227 70.1523 25.0195C70.6211 25.3086 71.2109 25.4531 71.9219 25.4531C72.5078 25.4531 73.0117 25.332 73.4336 25.0898C73.8633 24.8398 74.2148 24.5 74.4883 24.0703C74.7695 23.6406 74.9766 23.1484 75.1094 22.5938C75.2422 22.0312 75.3086 21.4336 75.3086 20.8008ZM85.5156 27.2344C84.6328 27.2344 83.832 27.0859 83.1133 26.7891C82.4023 26.4844 81.7891 26.0586 81.2734 25.5117C80.7656 24.9648 80.375 24.3164 80.1016 23.5664C79.8281 22.8164 79.6914 21.9961 79.6914 21.1055V20.6133C79.6914 19.582 79.8438 18.6641 80.1484 17.8594C80.4531 17.0469 80.8672 16.3594 81.3906 15.7969C81.9141 15.2344 82.5078 14.8086 83.1719 14.5195C83.8359 14.2305 84.5234 14.0859 85.2344 14.0859C86.1406 14.0859 86.9219 14.2422 87.5781 14.5547C88.2422 14.8672 88.7852 15.3047 89.207 15.8672C89.6289 16.4219 89.9414 17.0781 90.1445 17.8359C90.3477 18.5859 90.4492 19.4062 90.4492 20.2969V21.2695H80.9805V19.5H88.2812V19.3359C88.25 18.7734 88.1328 18.2266 87.9297 17.6953C87.7344 17.1641 87.4219 16.7266 86.9922 16.3828C86.5625 16.0391 85.9766 15.8672 85.2344 15.8672C84.7422 15.8672 84.2891 15.9727 83.875 16.1836C83.4609 16.3867 83.1055 16.6914 82.8086 17.0977C82.5117 17.5039 82.2812 18 82.1172 18.5859C81.9531 19.1719 81.8711 19.8477 81.8711 20.6133V21.1055C81.8711 21.707 81.9531 22.2734 82.1172 22.8047C82.2891 23.3281 82.5352 23.7891 82.8555 24.1875C83.1836 24.5859 83.5781 24.8984 84.0391 25.125C84.5078 25.3516 85.0391 25.4648 85.6328 25.4648C86.3984 25.4648 87.0469 25.3086 87.5781 24.9961C88.1094 24.6836 88.5742 24.2656 88.9727 23.7422L90.2852 24.7852C90.0117 25.1992 89.6641 25.5938 89.2422 25.9688C88.8203 26.3438 88.3008 26.6484 87.6836 26.8828C87.0742 27.1172 86.3516 27.2344 85.5156 27.2344Z" fill="white"/>
<path d="M96.2422 9.9375V27H93.9805V9.9375H96.2422ZM103.391 17.6133V19.4648H95.75V17.6133H103.391ZM104.551 9.9375V11.7891H95.75V9.9375H104.551ZM109.273 14.3203V27H107.094V14.3203H109.273ZM106.93 10.957C106.93 10.6055 107.035 10.3086 107.246 10.0664C107.465 9.82422 107.785 9.70312 108.207 9.70312C108.621 9.70312 108.938 9.82422 109.156 10.0664C109.383 10.3086 109.496 10.6055 109.496 10.957C109.496 11.293 109.383 11.582 109.156 11.8242C108.938 12.0586 108.621 12.1758 108.207 12.1758C107.785 12.1758 107.465 12.0586 107.246 11.8242C107.035 11.582 106.93 11.293 106.93 10.957ZM114.922 17.0273V27H112.754V14.3203H114.805L114.922 17.0273ZM114.406 20.1797L113.504 20.1445C113.512 19.2773 113.641 18.4766 113.891 17.7422C114.141 17 114.492 16.3555 114.945 15.8086C115.398 15.2617 115.938 14.8398 116.562 14.543C117.195 14.2383 117.895 14.0859 118.66 14.0859C119.285 14.0859 119.848 14.1719 120.348 14.3438C120.848 14.5078 121.273 14.7734 121.625 15.1406C121.984 15.5078 122.258 15.9844 122.445 16.5703C122.633 17.1484 122.727 17.8555 122.727 18.6914V27H120.547V18.668C120.547 18.0039 120.449 17.4727 120.254 17.0742C120.059 16.668 119.773 16.375 119.398 16.1953C119.023 16.0078 118.562 15.9141 118.016 15.9141C117.477 15.9141 116.984 16.0273 116.539 16.2539C116.102 16.4805 115.723 16.793 115.402 17.1914C115.09 17.5898 114.844 18.0469 114.664 18.5625C114.492 19.0703 114.406 19.6094 114.406 20.1797ZM134.012 24.5391V9H136.191V27H134.199L134.012 24.5391ZM125.48 20.8008V20.5547C125.48 19.5859 125.598 18.707 125.832 17.918C126.074 17.1211 126.414 16.4375 126.852 15.8672C127.297 15.2969 127.824 14.8594 128.434 14.5547C129.051 14.2422 129.738 14.0859 130.496 14.0859C131.293 14.0859 131.988 14.2266 132.582 14.5078C133.184 14.7812 133.691 15.1836 134.105 15.7148C134.527 16.2383 134.859 16.8711 135.102 17.6133C135.344 18.3555 135.512 19.1953 135.605 20.1328V21.2109C135.52 22.1406 135.352 22.9766 135.102 23.7188C134.859 24.4609 134.527 25.0938 134.105 25.6172C133.691 26.1406 133.184 26.543 132.582 26.8242C131.98 27.0977 131.277 27.2344 130.473 27.2344C129.73 27.2344 129.051 27.0742 128.434 26.7539C127.824 26.4336 127.297 25.9844 126.852 25.4062C126.414 24.8281 126.074 24.1484 125.832 23.3672C125.598 22.5781 125.48 21.7227 125.48 20.8008ZM127.66 20.5547V20.8008C127.66 21.4336 127.723 22.0273 127.848 22.582C127.98 23.1367 128.184 23.625 128.457 24.0469C128.73 24.4688 129.078 24.8008 129.5 25.043C129.922 25.2773 130.426 25.3945 131.012 25.3945C131.73 25.3945 132.32 25.2422 132.781 24.9375C133.25 24.6328 133.625 24.2305 133.906 23.7305C134.188 23.2305 134.406 22.6875 134.562 22.1016V19.2773C134.469 18.8477 134.332 18.4336 134.152 18.0352C133.98 17.6289 133.754 17.2695 133.473 16.957C133.199 16.6367 132.859 16.3828 132.453 16.1953C132.055 16.0078 131.582 15.9141 131.035 15.9141C130.441 15.9141 129.93 16.0391 129.5 16.2891C129.078 16.5312 128.73 16.8672 128.457 17.2969C128.184 17.7188 127.98 18.2109 127.848 18.7734C127.723 19.3281 127.66 19.9219 127.66 20.5547ZM144.828 27.2344C143.945 27.2344 143.145 27.0859 142.426 26.7891C141.715 26.4844 141.102 26.0586 140.586 25.5117C140.078 24.9648 139.688 24.3164 139.414 23.5664C139.141 22.8164 139.004 21.9961 139.004 21.1055V20.6133C139.004 19.582 139.156 18.6641 139.461 17.8594C139.766 17.0469 140.18 16.3594 140.703 15.7969C141.227 15.2344 141.82 14.8086 142.484 14.5195C143.148 14.2305 143.836 14.0859 144.547 14.0859C145.453 14.0859 146.234 14.2422 146.891 14.5547C147.555 14.8672 148.098 15.3047 148.52 15.8672C148.941 16.4219 149.254 17.0781 149.457 17.8359C149.66 18.5859 149.762 19.4062 149.762 20.2969V21.2695H140.293V19.5H147.594V19.3359C147.562 18.7734 147.445 18.2266 147.242 17.6953C147.047 17.1641 146.734 16.7266 146.305 16.3828C145.875 16.0391 145.289 15.8672 144.547 15.8672C144.055 15.8672 143.602 15.9727 143.188 16.1836C142.773 16.3867 142.418 16.6914 142.121 17.0977C141.824 17.5039 141.594 18 141.43 18.5859C141.266 19.1719 141.184 19.8477 141.184 20.6133V21.1055C141.184 21.707 141.266 22.2734 141.43 22.8047C141.602 23.3281 141.848 23.7891 142.168 24.1875C142.496 24.5859 142.891 24.8984 143.352 25.125C143.82 25.3516 144.352 25.4648 144.945 25.4648C145.711 25.4648 146.359 25.3086 146.891 24.9961C147.422 24.6836 147.887 24.2656 148.285 23.7422L149.598 24.7852C149.324 25.1992 148.977 25.5938 148.555 25.9688C148.133 26.3438 147.613 26.6484 146.996 26.8828C146.387 27.1172 145.664 27.2344 144.828 27.2344ZM154.461 16.3125V27H152.293V14.3203H154.402L154.461 16.3125ZM158.422 14.25L158.41 16.2656C158.23 16.2266 158.059 16.2031 157.895 16.1953C157.738 16.1797 157.559 16.1719 157.355 16.1719C156.855 16.1719 156.414 16.25 156.031 16.4062C155.648 16.5625 155.324 16.7812 155.059 17.0625C154.793 17.3438 154.582 17.6797 154.426 18.0703C154.277 18.4531 154.18 18.875 154.133 19.3359L153.523 19.6875C153.523 18.9219 153.598 18.2031 153.746 17.5312C153.902 16.8594 154.141 16.2656 154.461 15.75C154.781 15.2266 155.188 14.8203 155.68 14.5312C156.18 14.2344 156.773 14.0859 157.461 14.0859C157.617 14.0859 157.797 14.1055 158 14.1445C158.203 14.1758 158.344 14.2109 158.422 14.25Z" fill="white"/>
</svg>
